<svg width="397" height="108" viewBox="0 0 397 108" fill="none" xmlns="http://www.w3.org/2000/svg">
<path d="M14 48.7C14 44.3 15.8 40.2 18.9 37.1C22 34 26.1 32.3 30.5 32.4H42.8V52.5H53.3V22L30.5 21.9C30.5 21.9 30.5 21.9 30.4 21.9C23.3 21.9 16.6 24.7 11.5 29.7C6.4 34.8 3.6 41.6 3.6 48.7V59.6V70H20.6V59.6H14V48.7ZM60.8 70V59.6H28.3V70H60.8ZM76.9977 47.9V22H66.5977V47.9C66.5977 60.1 76.4977 70 88.6977 70H100.898V59.6H88.6977C82.2977 59.6 76.9977 54.4 76.9977 47.9ZM116.098 70V22H105.698V70H116.098ZM169.591 42.4V22H146.491C134.891 22 125.391 30.8 125.391 41.6V70H135.791V52.3H151.691C153.891 52.3 155.891 53.1 157.391 54.5C158.191 55.3 159.091 56.6 159.091 58.5V70H169.591V58.5C169.591 54.3 167.791 50.2 164.691 47.1C161.291 43.7 156.591 41.8 151.591 41.8L135.791 41.9V41.6C135.791 36.6 140.591 32.4 146.491 32.4H159.091V42.4H169.591ZM188.419 70V38.1H178.019V70H188.419ZM200.719 22H185.619V32.4H200.719C206.919 32.4 212.019 37.5 212.019 43.8V70H222.519V43.8C222.519 31.8 212.719 22 200.719 22ZM245.763 32.4V22H227.763V32.4H245.763ZM263.563 22C253.863 22 246.063 29.8 246.063 39.5V70H256.463V39.5C256.463 35.6 259.663 32.4 263.563 32.4H273.363V22H263.563ZM289.107 47.9V22H278.707V47.9C278.707 60.1 288.607 70 300.807 70H313.007V59.6H300.807C294.407 59.6 289.107 54.4 289.107 47.9ZM328.207 70V22H317.807V70H328.207ZM347.801 70V33.9H337.401V70H347.801ZM355.401 22H347.701V32.4H355.401C357.801 32.4 359.801 34.4 359.801 36.9V70H370.201V36.9C370.201 28.7 363.601 22 355.401 22ZM377.501 22H370.801V32.4H377.501C379.901 32.4 381.901 34.4 381.901 36.9V70H392.401V36.9C392.401 28.7 385.701 22 377.501 22Z" fill="black"/>
<path d="M2.06508 93.3142L9.03668 93.2986V93.7179C9.03668 94.5874 9.24888 95.1774 9.67328 95.4879C10.0977 95.7881 10.9879 95.9382 12.3439 95.9382H21.2098C22.0793 95.9382 22.7004 95.7933 23.073 95.5035C23.4457 95.2033 23.632 94.7116 23.632 94.0284C23.632 93.3349 23.4146 92.838 22.9799 92.5378C22.5555 92.2376 21.6342 92.0358 20.2161 91.9323L9.12984 91.6838C6.35569 91.601 4.47693 91.0731 3.49356 90.1001C2.52054 89.1271 2.03403 87.357 2.03403 84.7899C2.03403 83.4649 2.16342 82.3729 2.4222 81.5137C2.68098 80.6545 3.09504 79.9403 3.66436 79.371C4.33719 78.7292 5.21705 78.2737 6.30394 78.0046C7.39082 77.7355 9.16089 77.6009 11.6141 77.6009H22.3898C25.0605 77.6009 26.9806 78.0874 28.1503 79.0604C29.3304 80.0335 29.9204 81.612 29.9204 83.7962C29.9204 83.9411 29.9152 84.0963 29.9049 84.262C29.9049 84.4276 29.8894 84.6967 29.8583 85.0694H23.0575V84.9762C23.0575 84.2102 22.8608 83.6357 22.4675 83.2527C22.0845 82.8697 21.5048 82.6782 20.7285 82.6782H12.5923C11.2363 82.6782 10.3409 82.8128 9.90618 83.0819C9.47143 83.3511 9.25405 83.822 9.25405 84.4949C9.25405 85.1574 9.45073 85.6387 9.84408 85.9389C10.2374 86.2287 10.962 86.415 12.0178 86.4978L23.632 86.6842C26.2819 86.7566 28.1452 87.3518 29.2217 88.4698C30.3086 89.5877 30.852 91.4975 30.852 94.1992C30.852 95.8037 30.6502 97.0458 30.2465 97.9257C29.8531 98.8055 29.1855 99.556 28.2435 100.177C27.6224 100.57 26.7788 100.85 25.7126 101.016C24.6464 101.191 23.1041 101.279 21.0856 101.279H11.6763C7.81522 101.279 5.23258 100.85 3.92831 99.9907C2.62405 99.1212 1.97192 97.5064 1.97192 95.1463C1.97192 95.0118 1.9771 94.7892 1.98745 94.4787C2.00815 94.1578 2.03403 93.7696 2.06508 93.3142ZM50.0588 101H43.0096V83.5477H33.3363V77.8804H59.7321V83.5477H50.0588V101ZM69.6694 91.5907H78.5508L74.0635 83.408L69.6694 91.5907ZM64.7473 101H57.046L69.6694 77.8804H78.675L91.0655 101H83.3175L81.0817 97.1493H66.9987L64.7473 101ZM111.872 83.6409H100.646V89.2927H111.872C112.814 89.2927 113.471 89.0753 113.843 88.6406C114.226 88.1955 114.418 87.3984 114.418 86.2494C114.418 85.3385 114.216 84.676 113.812 84.262C113.409 83.8479 112.762 83.6409 111.872 83.6409ZM112.136 77.8804C115.8 77.8804 118.295 78.4238 119.62 79.5107C120.944 80.5976 121.607 82.5799 121.607 85.4575C121.607 87.4553 121.312 88.9407 120.722 89.9138C120.132 90.8868 119.143 91.5389 117.756 91.8702C118.978 92.16 119.894 92.6724 120.505 93.4073C121.115 94.1423 121.421 95.0946 121.421 96.2643V101H114.356V97.4754C114.356 96.5645 114.139 95.9382 113.704 95.5966C113.279 95.255 112.436 95.0842 111.173 95.0842H100.646V101H93.5653V77.8804H112.136ZM141.233 101H134.184V83.5477H124.51V77.8804H150.906V83.5477H141.233V101Z" fill="black"/>
</svg>
